<?xml version="1.0" standalone="no"?>
<!DOCTYPE svg PUBLIC "-//W3C//DTD SVG 20010904//EN"
 "http://www.w3.org/TR/2001/REC-SVG-20010904/DTD/svg10.dtd">
<svg version="1.0" xmlns="http://www.w3.org/2000/svg"
 width="826.000000pt" height="826.000000pt" viewBox="0 0 826.000000 826.000000"
 preserveAspectRatio="xMidYMid meet">

<g transform="translate(0.000000,826.000000) scale(0.100000,-0.100000)"
fill="currentColor" stroke="none">
<path d="M4770 6390 c-159 -17 -339 -64 -477 -127 -28 -12 -54 -23 -57 -23
-10 0 -139 -66 -234 -119 -126 -70 -246 -118 -339 -136 -191 -37 -341 -10
-783 141 -342 116 -477 141 -724 131 -243 -9 -420 -58 -628 -171 -381 -209
-639 -563 -728 -1001 -25 -121 -40 -438 -29 -575 16 -182 103 -328 218 -364
180 -57 340 -5 445 145 l16 24 38 -20 37 -20 5 -581 5 -581 32 -51 31 -50
-322 -4 -323 -3 -42 -30 c-55 -38 -86 -79 -101 -133 -14 -55 -13 -1103 2
-1175 12 -59 57 -113 113 -138 37 -15 122 -17 991 -24 1056 -8 1038 -9 1106
53 71 64 68 32 68 753 l0 649 89 0 88 0 7 -37 c3 -21 6 -310 6 -643 1 -638 2
-652 47 -702 10 -11 36 -32 58 -47 l40 -26 970 0 970 0 48 24 c63 31 104 82
117 147 16 76 9 1149 -7 1187 -7 15 -24 32 -37 37 -63 23 -35 30 128 30 91 0
166 -2 166 -5 0 -2 -9 -19 -20 -37 -19 -32 -20 -51 -20 -623 0 -369 4 -604 10
-627 13 -44 72 -104 120 -120 56 -18 1951 -18 2005 1 58 20 93 48 115 91 19
38 20 61 20 638 0 581 -1 599 -20 640 -26 53 -86 98 -153 112 -35 8 -166 10
-395 8 -188 -2 -342 0 -342 3 0 4 15 18 33 31 56 43 57 59 57 672 l0 553 -23
44 c-13 24 -43 58 -66 74 l-43 30 -499 3 c-562 3 -518 -5 -473 84 15 29 34 75
44 102 10 28 30 85 44 126 58 164 68 216 68 365 0 221 -40 382 -148 595 -66
129 -162 260 -246 335 -164 146 -195 168 -343 238 -215 102 -496 151 -735 127z
m326 -231 c360 -65 641 -265 811 -578 13 -24 13 -24 -19 3 -113 91 -221 150
-353 192 -85 27 -99 29 -270 29 -160 0 -189 -3 -260 -24 l-79 -23 -101 23
c-86 21 -124 24 -275 23 -160 -1 -182 -3 -260 -28 -278 -87 -488 -284 -572
-536 -31 -91 -32 -102 -32 -260 -1 -150 2 -174 27 -263 15 -55 27 -100 27
-102 0 -10 -113 61 -158 99 -30 25 -60 46 -68 46 -24 0 -47 -69 -48 -140 0
-61 4 -73 63 -190 35 -69 72 -137 83 -152 10 -14 18 -30 18 -36 0 -9 -52 -44
-175 -119 -109 -66 -166 -95 -180 -89 -15 6 -47 52 -98 145 -61 112 -124 170
-224 210 -33 13 -53 31 -90 86 -35 51 -63 79 -103 103 -107 64 -115 65 -565
72 -275 4 -422 11 -447 19 -46 15 -106 62 -228 180 -183 178 -335 311 -354
311 -3 0 -6 -42 -6 -94 0 -51 -3 -107 -6 -123 -5 -28 -9 -30 -42 -28 -21 1
-47 5 -59 9 -13 4 -23 4 -23 -1 0 -4 -11 -21 -25 -38 l-24 -30 5 40 c13 94 46
227 79 314 91 242 191 388 378 547 157 134 337 220 541 259 168 32 454 16 606
-35 446 -148 668 -213 773 -225 152 -17 345 -2 467 37 59 19 222 99 420 206
122 66 364 146 495 165 64 9 294 6 351 -4z m-396 -583 c41 -8 92 -21 114 -30
54 -22 115 -20 230 9 286 73 505 21 699 -164 71 -67 126 -159 158 -261 21 -65
24 -95 24 -235 0 -139 -3 -165 -20 -200 -41 -85 -184 -189 -292 -214 -93 -21
-422 -35 -843 -35 -417 -1 -426 -1 -500 22 -266 82 -360 204 -360 466 0 130
16 217 53 291 47 94 80 137 154 197 169 139 370 192 583 154z m-3540 -705 c2
-24 20 -140 26 -158 6 -21 3 -23 -32 -23 -22 0 -34 4 -28 8 13 8 16 64 4 57
-5 -3 -4 11 1 31 6 19 8 48 4 63 -4 21 -2 28 10 28 8 0 15 -3 15 -6z m-60
-161 c0 -5 -2 -10 -4 -10 -3 0 -8 5 -11 10 -3 6 -1 10 4 10 6 0 11 -4 11 -10z
m164 -256 c21 -20 20 -24 -9 -64 -42 -57 -131 -78 -195 -45 -28 14 -80 88 -80
113 0 9 39 12 134 12 109 0 138 -3 150 -16z m1544 -264 c84 -12 119 -37 180
-130 27 -41 88 -134 135 -206 48 -72 109 -152 137 -178 101 -95 223 -125 353
-88 l67 19 0 -208 c0 -203 0 -208 -22 -223 -20 -14 -110 -16 -770 -16 l-748 0
-1 213 c-1 116 -1 223 -1 237 -1 14 0 152 1 308 l1 282 303 0 c166 0 331 -5
365 -10z m4160 -492 c2 -487 2 -498 -18 -518 -20 -20 -32 -20 -785 -20 l-765
0 0 513 c0 283 3 517 7 520 3 4 356 6 782 5 l776 -3 3 -497z m-2208 -36 c0
-557 3 -589 57 -631 l26 -21 -514 0 c-497 1 -513 1 -492 19 12 10 31 35 42 57
21 38 21 50 21 561 l0 523 430 0 430 0 0 -508z m-1090 244 c0 -98 10 -91 -150
-102 -83 -6 -97 -5 -110 11 -12 15 -12 18 0 26 169 104 245 149 252 149 4 0 8
-38 8 -84z m-800 -1644 l0 -528 -382 -3 c-211 -1 -546 1 -745 5 l-361 7 2 436
c2 240 1 442 -2 449 -3 8 -28 12 -76 13 -39 0 -89 4 -111 8 -31 7 -15 9 73 10
l112 1 0 65 0 65 745 0 745 0 0 -528z m2429 514 c8 -9 10 -156 9 -527 l-3
-514 -743 0 -742 0 -5 518 c-3 285 -3 523 0 528 4 5 302 9 739 9 607 0 736 -2
745 -14z m2344 7 l157 -6 0 -507 c0 -406 -3 -510 -13 -518 -19 -16 -1431 -29
-1441 -14 -4 7 -10 243 -13 526 l-6 515 89 4 c176 6 1072 7 1227 0z"/>
<path d="M4543 5359 c-23 -4 -72 -21 -110 -37 -73 -32 -207 -76 -261 -87 -42
-9 -55 -35 -50 -102 7 -80 29 -98 116 -97 124 3 361 87 400 142 28 38 29 105
3 148 -22 37 -41 43 -98 33z"/>
<path d="M5213 5348 c-51 -56 -66 -125 -37 -166 22 -31 68 -52 229 -105 180
-59 205 -63 243 -43 37 19 41 25 57 88 17 63 5 106 -33 114 -70 15 -235 70
-301 100 -87 40 -129 43 -158 12z"/>
<path d="M4755 5129 c-22 -22 -74 -62 -115 -88 -93 -60 -104 -72 -126 -144
l-18 -57 29 -30 c27 -28 233 -136 319 -166 72 -26 123 -19 221 32 50 26 113
59 142 73 29 15 68 45 89 66 32 34 36 43 31 77 -8 57 -29 82 -109 130 -83 48
-167 107 -187 131 -11 14 -33 17 -125 17 l-112 0 -39 -41z"/>
</g>
</svg>
